<?xml version="1.0" encoding="UTF-8" standalone="no"?>
<!-- Created with Inkscape (http://www.inkscape.org/) -->

<svg
   width="210mm"
   height="297mm"
   viewBox="0 0 210 297"
   version="1.1"
   id="svg5"
   inkscape:version="1.1.1 (3bf5ae0d25, 2021-09-20)"
   sodipodi:docname="Icon.svg"
   xmlns:inkscape="http://www.inkscape.org/namespaces/inkscape"
   xmlns:sodipodi="http://sodipodi.sourceforge.net/DTD/sodipodi-0.dtd"
   xmlns="http://www.w3.org/2000/svg"
   xmlns:svg="http://www.w3.org/2000/svg">
  <sodipodi:namedview
     id="namedview7"
     pagecolor="#505050"
     bordercolor="#eeeeee"
     borderopacity="1"
     inkscape:pageshadow="0"
     inkscape:pageopacity="0"
     inkscape:pagecheckerboard="0"
     inkscape:document-units="mm"
     showgrid="false"
     inkscape:snap-bbox="true"
     inkscape:zoom="1"
     inkscape:cx="323.49999"
     inkscape:cy="509.99999"
     inkscape:window-width="1920"
     inkscape:window-height="974"
     inkscape:window-x="-9"
     inkscape:window-y="-9"
     inkscape:window-maximized="1"
     inkscape:current-layer="layer3" />
  <defs
     id="defs2" />
  <g
     inkscape:groupmode="layer"
     id="layer5"
     inkscape:label="Layer 5"
     style="display:inline">
    <path
       sodipodi:type="star"
       style="display:inline;fill:#ffffff;fill-opacity:1;fill-rule:evenodd"
       id="path221"
       inkscape:flatsided="true"
       sodipodi:sides="5"
       sodipodi:cx="312.62531"
       sodipodi:cy="600.67316"
       sodipodi:r1="13.674298"
       sodipodi:r2="6.8371487"
       sodipodi:arg1="-1.5707963"
       sodipodi:arg2="-0.9424778"
       inkscape:rounded="0"
       inkscape:randomized="0"
       d="m 312.62531,586.99886 13.00503,9.44871 -4.96748,15.28833 -16.07511,0 -4.96748,-15.28833 z"
       transform="matrix(6.729732,0,0,6.729732,-1998.6325,-3895.2216)"
       inkscape:transform-center-x="3.719397e-05"
       inkscape:transform-center-y="-8.7875522" />
    <path
       style="fill:#000000;fill-opacity:1;stroke-width:0.20966"
       d="m 19.829601,117.34955 c 0.469613,-0.43983 84.009069,-61.053154 84.064629,-60.994374 0.0338,0.03572 -6.207711,9.132571 -13.869954,20.215223 L 76.092922,96.72066 48.034848,107.12838 c -15.431942,5.72423 -28.136005,10.40772 -28.231249,10.40772 -0.09525,0 -0.08355,-0.084 0.026,-0.18655 z"
       id="path19470" />
    <path
       style="fill:#000000;fill-opacity:1;stroke-width:0.20966"
       d="M 34.444431,169.81279 C 25.538946,142.40264 18.28973,119.93907 18.335063,119.89373 c 0.06078,-0.0609 19.874046,18.83426 27.975778,26.67928 l 0.703524,0.68123 1.861881,36.03595 c 1.024036,19.81976 1.838957,36.10868 1.810929,36.1976 -0.028,0.0889 -7.337265,-22.26483 -16.242744,-49.675 z"
       id="path29181" />
    <path
       style="fill:#000000;fill-opacity:1;stroke-width:0.20966"
       d="m 52.443687,221.43524 c 0.209959,-0.20994 52.523303,-23.62399 52.811963,-23.63721 0.27677,-0.0127 52.56016,23.38541 52.80728,23.63252 0.0534,0.0534 -23.70994,0.097 -52.80728,0.097 -29.097344,0 -52.862726,-0.0415 -52.811963,-0.0922 z"
       id="path29220" />
    <path
       style="fill:#000000;fill-opacity:1;stroke-width:0.20966"
       d="m 159.86399,217.8585 c 0.0546,-1.03783 0.86224,-17.02964 1.79483,-35.53741 0.9326,-18.50776 1.74189,-33.95691 1.79843,-34.33147 0.0872,-0.57792 2.26316,-2.76225 14.37185,-14.4275 7.84798,-7.56058 14.3041,-13.71144 14.34693,-13.6686 0.0702,0.0702 -31.70441,98.07888 -32.20229,99.32776 -0.15297,0.38371 -0.18238,0.0185 -0.10975,-1.36278 z"
       id="path29259" />
    <path
       style="fill:#000000;fill-opacity:1;stroke-width:0.20966"
       d="M 163.12187,107.39533 C 148.18883,101.84421 135.61795,97.1612 135.1866,96.98863 134.47849,96.70535 133.05012,94.72073 120.475,76.547958 112.81496,65.478145 106.57723,56.391456 106.61337,56.355313 c 0.0594,-0.05946 83.59869,60.549397 84.06834,60.992757 0.12267,0.11585 0.0825,0.17883 -0.10476,0.16411 -0.16719,-0.0127 -12.52196,-4.56573 -27.455,-10.11685 z"
       id="path29298" />
  </g>
  <g
     inkscape:groupmode="layer"
     id="layer4"
     inkscape:label="Layer 4"
     style="display:inline">
    <path
       style="fill:none;stroke:#000000;stroke-width:0.41932px;stroke-linecap:butt;stroke-linejoin:miter;stroke-opacity:1"
       d="M 17.731532,118.71065 76.319983,96.97519 Z"
       id="path4635" />
    <path
       style="fill:none;stroke:#000000;stroke-width:0.41932px;stroke-linecap:butt;stroke-linejoin:miter;stroke-opacity:1"
       d="m 17.731532,118.71065 29.58806,28.40484 z"
       id="path4637" />
    <path
       style="fill:none;stroke:#000000;stroke-width:0.41932px;stroke-linecap:butt;stroke-linejoin:miter;stroke-opacity:1"
       d="M 76.242153,197.3007 Z"
       id="path4639" />
    <path
       style="fill:none;stroke:#000000;stroke-width:0.41932px;stroke-linecap:butt;stroke-linejoin:miter;stroke-opacity:1"
       d="M 51.161334,221.59702 Z"
       id="path4641" />
    <path
       style="fill:none;stroke:#000000;stroke-width:0.41932px;stroke-linecap:butt;stroke-linejoin:miter;stroke-opacity:1"
       d="m 134.1651,197.34564 25.17737,24.25138 z"
       id="path4645" />
    <path
       style="fill:none;stroke:#000000;stroke-width:0.41932px;stroke-linecap:butt;stroke-linejoin:miter;stroke-opacity:1"
       d="m 163.16549,147.20535 -3.82302,74.39167 z"
       id="path4647" />
    <path
       style="fill:none;stroke:#000000;stroke-width:0.41932px;stroke-linecap:butt;stroke-linejoin:miter;stroke-opacity:1"
       d="m 47.319592,147.11549 3.841742,74.48153 z"
       id="path4649" />
    <path
       style="fill:none;stroke:#000000;stroke-width:0.41932px;stroke-linecap:butt;stroke-linejoin:miter;stroke-opacity:1"
       d="M 192.77229,118.71066 Z"
       id="path4651" />
    <path
       style="fill:none;stroke:#000000;stroke-width:0.41932px;stroke-linecap:butt;stroke-linejoin:miter;stroke-opacity:1"
       d="M 163.16549,147.20535 Z"
       id="path4653" />
    <path
       style="fill:none;stroke:#000000;stroke-width:0.41932px;stroke-linecap:butt;stroke-linejoin:miter;stroke-opacity:1"
       d="m 163.16549,147.20535 29.6068,-28.49469 z"
       id="path4655" />
    <path
       style="fill:none;stroke:#000000;stroke-width:0.41932px;stroke-linecap:butt;stroke-linejoin:miter;stroke-opacity:1"
       d="m 134.24293,97.02013 58.52936,21.69053 z"
       id="path4657" />
    <path
       style="fill:none;stroke:#000000;stroke-width:0.41932px;stroke-linecap:butt;stroke-linejoin:miter;stroke-opacity:1"
       d="M 76.319979,96.97519 Z"
       id="path4659" />
    <path
       style="fill:none;stroke:#000000;stroke-width:0.41932px;stroke-linecap:butt;stroke-linejoin:miter;stroke-opacity:1"
       d="M 76.319983,96.97519 105.25189,55.123367 Z"
       id="path4661" />
    <path
       style="fill:none;stroke:#000000;stroke-width:0.41932px;stroke-linecap:butt;stroke-linejoin:miter;stroke-opacity:1"
       d="M 134.24293,97.02013 105.25189,55.123367 Z"
       id="path4663" />
    <path
       style="fill:none;stroke:#000000;stroke-width:0.41932px;stroke-linecap:butt;stroke-linejoin:miter;stroke-opacity:1"
       d="M 134.1651,197.34564 Z"
       id="path4667" />
    <path
       style="fill:none;stroke:#000000;stroke-width:0.41932px;stroke-linecap:butt;stroke-linejoin:miter;stroke-opacity:1"
       d="M 51.161334,221.59702 105.25584,197.32249 Z"
       id="path4788" />
    <path
       style="fill:none;stroke:#000000;stroke-width:0.41932px;stroke-linecap:butt;stroke-linejoin:miter;stroke-opacity:1"
       d="M 105.25584,197.32249 Z"
       id="path4790" />
    <path
       style="fill:none;stroke:#000000;stroke-width:0.41932px;stroke-linecap:butt;stroke-linejoin:miter;stroke-opacity:1"
       d="m 105.25584,197.32249 54.08663,24.27453 z"
       id="path4792" />
    <path
       style="fill:none;stroke:#000000;stroke-width:0.41932px;stroke-linecap:butt;stroke-linejoin:miter;stroke-opacity:1"
       d="M 51.161334,221.59702 76.242153,197.3007 Z"
       id="path5387" />
    <path
       style="fill:none;stroke:#000000;stroke-width:0.41932px;stroke-linecap:butt;stroke-linejoin:miter;stroke-opacity:1"
       d="M 134.24293,97.02013 Z"
       id="path11234" />
    <path
       style="fill:none;stroke:#000000;stroke-width:0.41932px;stroke-linecap:butt;stroke-linejoin:miter;stroke-opacity:1"
       d="M 163.16549,147.20534 Z"
       id="path11761" />
  </g>
  <g
     inkscape:groupmode="layer"
     id="layer3"
     inkscape:label="Layer 3"
     style="display:inline">
    <path
       sodipodi:type="star"
       style="display:inline;fill:#eaa221;fill-opacity:1"
       id="path4465"
       inkscape:flatsided="true"
       sodipodi:sides="6"
       sodipodi:cx="435.46875"
       sodipodi:cy="559.64844"
       sodipodi:r1="138.13535"
       sodipodi:r2="96.354538"
       sodipodi:arg1="-2.0936193"
       sodipodi:arg2="-1.5700205"
       inkscape:rounded="0"
       inkscape:randomized="0"
       d="m 366.49391,439.96617 138.1353,0.10717 68.97484,119.68226 -69.16046,119.5751 -138.1353,-0.10716 -68.97484,-119.68227 z"
       inkscape:transform-center-x="2.5904936e-06"
       inkscape:transform-center-y="-7.6455596e-06"
       transform="matrix(0.4193204,0,0,0.4193204,-77.358385,-87.511604)" />
  </g>
  <g
     inkscape:groupmode="layer"
     id="layer6"
     inkscape:label="Layer 6"
     style="display:inline">
    <path
       style="fill:#3dd6ee;fill-opacity:1;stroke-width:0.148252"
       d="m 47.91468,146.77656 c 0,-0.27138 28.377542,-49.11867 28.476245,-49.0172 0.09035,0.0929 26.096105,45.16054 27.892515,48.33738 l 0.44012,0.77832 H 76.319121 c -15.622445,0 -28.404441,-0.0444 -28.404441,-0.0986 z"
       id="path12069" />
    <path
       style="fill:#3dd6ee;fill-opacity:1;stroke-width:0.148252"
       d="m 119.94243,172.07337 -14.17941,-24.6053 h 28.46151 28.4615 l -0.29086,0.48181 c -0.15996,0.26501 -6.51408,11.25606 -14.12026,24.42455 -7.60617,13.1685 -13.90222,24.02407 -13.99123,24.12347 -0.12103,0.13518 -3.73613,-6.02165 -14.34125,-24.42453 z"
       id="path14365" />
    <path
       style="fill:none;stroke:#000000;stroke-width:0.41932px;stroke-linecap:butt;stroke-linejoin:miter;stroke-opacity:1"
       d="m 47.319592,147.11549 115.845898,0.0898 z"
       id="path11230" />
    <path
       style="fill:none;stroke:#000000;stroke-width:0.41932px;stroke-linecap:butt;stroke-linejoin:miter;stroke-opacity:1"
       d="M 76.319983,96.97519 134.1651,197.34564 Z"
       id="path11232" />
    <path
       style="fill:none;stroke:#000000;stroke-width:0.41932px;stroke-linecap:butt;stroke-linejoin:miter;stroke-opacity:1"
       d="m 76.319979,96.97519 -29.000387,50.1403 z"
       id="path11759" />
    <path
       style="fill:none;stroke:#000000;stroke-width:0.41932px;stroke-linecap:butt;stroke-linejoin:miter;stroke-opacity:1"
       d="M 163.16549,147.20535 134.1651,197.34564 Z"
       id="path11763" />
    <path
       style="fill:none;stroke:#000000;stroke-width:0.41932px;stroke-linecap:butt;stroke-linejoin:miter;stroke-opacity:1"
       d="M 134.24293,97.02013 Z"
       id="path14528" />
    <path
       style="fill:none;stroke:#000000;stroke-width:0.41932px;stroke-linecap:butt;stroke-linejoin:miter;stroke-opacity:1"
       d="m 134.24293,97.02013 28.92256,50.18521 z"
       id="path14530" />
    <path
       style="fill:none;stroke:#000000;stroke-width:0.41932px;stroke-linecap:butt;stroke-linejoin:miter;stroke-opacity:1"
       d="m 134.24293,97.02013 -57.922947,-0.045 z"
       id="path14532" />
    <path
       style="fill:none;stroke:#000000;stroke-width:0.41932px;stroke-linecap:butt;stroke-linejoin:miter;stroke-opacity:1"
       d="m 76.24215,197.3007 57.92295,0.045 z"
       id="path14534" />
    <path
       style="fill:none;stroke:#000000;stroke-width:0.41932px;stroke-linecap:butt;stroke-linejoin:miter;stroke-opacity:1"
       d="M 47.319592,147.11549 76.24215,197.3007 Z"
       id="path14536" />
  </g>
  <g
     inkscape:label="Layer 1"
     inkscape:groupmode="layer"
     id="layer1"
     style="display:none">
    <path
       style="fill:none;stroke:#000000;stroke-width:0.41932px;stroke-linecap:butt;stroke-linejoin:miter;stroke-opacity:1"
       d="M 17.731532,158.00967 Z"
       id="path2214" />
    <path
       style="fill:none;stroke:#000000;stroke-width:0.41932px;stroke-linecap:butt;stroke-linejoin:miter;stroke-opacity:1"
       d="m 17.731532,118.71065 175.040758,1e-5 z"
       id="path2683" />
    <path
       style="fill:none;stroke:#000000;stroke-width:0.41932px;stroke-linecap:butt;stroke-linejoin:miter;stroke-opacity:1"
       d="M 105.25189,55.123367 Z"
       id="path2685" />
    <path
       style="fill:none;stroke:#000000;stroke-width:0.41932px;stroke-linecap:butt;stroke-linejoin:miter;stroke-opacity:1"
       d="M 105.25189,55.123367 51.161334,221.59702 Z"
       id="path2687" />
    <path
       style="display:inline;fill:none;stroke:#000000;stroke-width:0.41932px;stroke-linecap:butt;stroke-linejoin:miter;stroke-opacity:1"
       d="M 105.25189,55.123367 159.34247,221.59702 Z"
       id="path2689" />
    <path
       style="display:inline;fill:none;stroke:#000000;stroke-width:0.41932px;stroke-linecap:butt;stroke-linejoin:miter;stroke-opacity:1"
       d="M 51.161334,221.59702 192.77229,118.71066 Z"
       id="path2691" />
    <path
       style="display:inline;fill:none;stroke:#000000;stroke-width:0.41932px;stroke-linecap:butt;stroke-linejoin:miter;stroke-opacity:1"
       d="M 17.731532,118.71065 159.34247,221.59702 Z"
       id="path2693" />
    <path
       style="fill:none;stroke:#000000;stroke-width:0.41932px;stroke-linecap:butt;stroke-linejoin:miter;stroke-opacity:1"
       d="m 105.24254,147.16043 0.01,-92.037063 z"
       id="path3145" />
    <path
       style="fill:none;stroke:#000000;stroke-width:0.41932px;stroke-linecap:butt;stroke-linejoin:miter;stroke-opacity:1"
       d="M 105.24254,147.16043 17.731532,118.71065 Z"
       id="path3421" />
    <path
       style="fill:none;stroke:#000000;stroke-width:0.41932px;stroke-linecap:butt;stroke-linejoin:miter;stroke-opacity:1"
       d="m 105.24254,147.16043 87.52975,-28.44977 z"
       id="path3423" />
    <path
       style="fill:none;stroke:#000000;stroke-width:0.41932px;stroke-linecap:butt;stroke-linejoin:miter;stroke-opacity:1"
       d="M 51.161334,221.59702 Z"
       id="path3425" />
    <path
       style="fill:none;stroke:#000000;stroke-width:0.41932px;stroke-linecap:butt;stroke-linejoin:miter;stroke-opacity:1"
       d="M 51.161334,221.59702 Z"
       id="path3427" />
    <path
       style="fill:none;stroke:#000000;stroke-width:0.41932px;stroke-linecap:butt;stroke-linejoin:miter;stroke-opacity:1"
       d="M 105.24254,147.16043 51.161334,221.59702 Z"
       id="path3429" />
    <path
       style="fill:none;stroke:#000000;stroke-width:0.41932px;stroke-linecap:butt;stroke-linejoin:miter;stroke-opacity:1"
       d="m 105.24254,147.16043 54.09993,74.43659 z"
       id="path3431" />
    <path
       style="fill:none;stroke:#000000;stroke-width:0.41932px;stroke-linecap:butt;stroke-linejoin:miter;stroke-opacity:1"
       d="M 61.443485,86.941848 17.731532,118.71065 Z"
       id="path3550" />
    <path
       style="fill:none;stroke:#000000;stroke-width:0.41932px;stroke-linecap:butt;stroke-linejoin:miter;stroke-opacity:1"
       d="M 73.013839,102.82711 17.731532,118.71065 Z"
       id="path3904" />
    <path
       style="fill:none;stroke:#000000;stroke-width:0.41932px;stroke-linecap:butt;stroke-linejoin:miter;stroke-opacity:1"
       d="M 61.443482,86.941848 73.013837,102.82711 Z"
       id="path4179" />
    <path
       style="fill:none;stroke:#000000;stroke-width:0.41932px;stroke-linecap:butt;stroke-linejoin:miter;stroke-opacity:1"
       d="m 73.013837,102.82711 11.583736,15.89324 z"
       id="path4181" />
  </g>
  <g
     inkscape:groupmode="layer"
     id="layer2"
     inkscape:label="Layer 2"
     style="display:none">
    <path
       sodipodi:type="star"
       style="fill:#ff5800;fill-opacity:0.412955;fill-rule:evenodd"
       id="path221-9"
       inkscape:flatsided="true"
       sodipodi:sides="5"
       sodipodi:cx="312.62531"
       sodipodi:cy="600.67316"
       sodipodi:r1="13.674298"
       sodipodi:r2="6.8371487"
       sodipodi:arg1="-1.5707963"
       sodipodi:arg2="-0.9424778"
       inkscape:rounded="0"
       inkscape:randomized="0"
       transform="matrix(6.729732,0,0,-6.729732,-1998.6325,4171.9419)"
       inkscape:transform-center-x="7.9766277e-05"
       inkscape:transform-center-y="8.7875875"
       d="m 312.62531,586.99886 13.00503,9.44871 -4.96748,15.28833 -16.07511,0 -4.96748,-15.28833 z" />
    <path
       style="display:inline;fill:none;stroke:#000000;stroke-width:0.41932px;stroke-linecap:butt;stroke-linejoin:miter;stroke-opacity:1"
       d="m 105.24702,138.34575 0.005,-83.222383 z"
       id="path2218" />
    <path
       style="display:inline;fill:none;stroke:#000000;stroke-width:0.41932px;stroke-linecap:butt;stroke-linejoin:miter;stroke-opacity:1"
       d="M 105.24702,138.34575 17.731532,118.71065 Z"
       id="path2675" />
    <path
       style="display:inline;fill:none;stroke:#000000;stroke-width:0.41932px;stroke-linecap:butt;stroke-linejoin:miter;stroke-opacity:1"
       d="M 51.161334,221.59702 105.24702,138.34575 Z"
       id="path2677" />
    <path
       style="display:inline;fill:none;stroke:#000000;stroke-width:0.41932px;stroke-linecap:butt;stroke-linejoin:miter;stroke-opacity:1"
       d="m 105.24702,138.34575 54.09545,83.25127 z"
       id="path2679" />
    <path
       style="display:inline;fill:none;stroke:#000000;stroke-width:0.41932px;stroke-linecap:butt;stroke-linejoin:miter;stroke-opacity:1"
       d="m 192.77229,118.71066 -87.52527,19.63509 z"
       id="path2681" />
  </g>
</svg>
